<svg width="24" height="25" viewBox="0 0 24 25" fill="none" xmlns="http://www.w3.org/2000/svg">
<path d="M3 14.5001C3.83 15.1421 5.077 15.5171 6.5 15.5001C7.923 15.5171 9.17 15.1421 10 14.5001C10.83 13.8581 12.077 13.4831 13.5 13.5001C14.923 13.4831 16.17 13.8581 17 14.5001M8.00001 3.5C7.68352 3.72717 7.42708 4.02797 7.25286 4.37642C7.07863 4.72488 6.99185 5.1105 7.00001 5.5C6.99185 5.8895 7.07863 6.27512 7.25286 6.62358C7.42708 6.97203 7.68352 7.27283 8.00001 7.5M12 3.5C11.6835 3.72717 11.4271 4.02797 11.2529 4.37642C11.0786 4.72488 10.9918 5.1105 11 5.5C10.9918 5.8895 11.0786 6.27512 11.2529 6.62358C11.4271 6.97203 11.6835 7.27283 12 7.5M16.746 17.2259C17.1926 17.431 17.6827 17.5231 18.1733 17.4944C18.6639 17.4656 19.1398 17.3167 19.5594 17.0609C19.979 16.8051 20.3293 16.4501 20.5795 16.0272C20.8297 15.6043 20.9723 15.1264 20.9945 14.6355C21.0168 14.1446 20.9181 13.6557 20.7072 13.2119C20.4963 12.768 20.1796 12.3828 19.7849 12.09C19.3902 11.7973 18.9297 11.6059 18.4437 11.5329C17.9578 11.4598 17.4613 11.5072 16.998 11.6709M3 10.5H17V15.5C17 17.0913 16.3679 18.6174 15.2426 19.7426C14.1174 20.8679 12.5913 21.5 11 21.5H9C7.4087 21.5 5.88258 20.8679 4.75736 19.7426C3.63214 18.6174 3 17.0913 3 15.5V10.5Z" stroke="white" stroke-linecap="round" stroke-linejoin="round"/>
</svg>
