<svg width="62" height="62" viewBox="0 0 62 62" fill="none" xmlns="http://www.w3.org/2000/svg">
<g clip-path="url(#clip0_193_7192)">
<circle cx="31" cy="31" r="31" fill="#E2F1F2"/>
<path d="M30.9983 37.6842C36.434 37.6842 40.8404 33.2777 40.8404 27.8421C40.8404 22.4064 36.434 18 30.9983 18C25.5627 18 21.1562 22.4064 21.1562 27.8421C21.1562 33.2777 25.5627 37.6842 30.9983 37.6842Z" fill="#39919A"/>
<path d="M30.9993 40C21.407 40 13.6309 47.7762 13.6309 57.3684C13.6309 59.9263 15.7045 62 18.2625 62H43.7361C46.2941 62 48.3677 59.9263 48.3677 57.3684C48.3677 47.7762 40.5915 40 30.9993 40Z" fill="#39919A"/>
</g>
<defs>
<clipPath id="clip0_193_7192">
<rect width="62" height="62" rx="31" fill="white"/>
</clipPath>
</defs>
</svg>
