<svg width="1440" height="636" viewBox="0 0 1440 636" fill="none" xmlns="http://www.w3.org/2000/svg">
<path d="M-256 822L1696 822L1696 83.5103L1391.07 50.0915C1208.61 30.0945 1024.47 30.7506 842.152 52.0476L544.005 86.8749C283.927 117.255 20.6541 105.574 -235.712 52.2802L-256 48.0626L-256 822Z" fill="#3BA1A5" fill-opacity="0.14"/>
<path d="M1696 822L-256 822L-256 65.0938L42.1675 31.6013C229.096 10.6041 417.825 11.293 604.594 33.6543L886.379 67.3913C1152.74 99.2817 1422.54 87.0286 1684.91 31.1253L1696 28.7624L1696 822Z" fill="#3BA1A5" fill-opacity="0.21"/>
<path d="M0 86.1739L271.481 109.968C378.848 119.379 486.916 117.19 593.814 103.44L846.238 70.9709C949.466 57.6929 1053.79 55.1947 1157.54 63.5165L1440 86.1739V636H0V86.1739Z" fill="#031F27"/>
</svg>
