<svg width="320" height="1219" viewBox="0 0 320 1219" fill="none" xmlns="http://www.w3.org/2000/svg">
<path d="M354 1159L-34.0001 1159L-34 16.3906L-27.0639 15.2087C31.9363 5.15537 92.2827 6.04148 150.962 17.8227L179.538 23.5599C237.426 35.1824 297.26 32.7236 354 16.3906L354 1159Z" fill="#3BA1A5" fill-opacity="0.21"/>
<path d="M-34 1159L354 1159L354 16.3906L347.064 15.2087C288.064 5.15537 227.717 6.04148 169.038 17.8227L140.462 23.5599C82.5737 35.1824 22.7397 32.7236 -34 16.3906L-34 1159Z" fill="#3BA1A5" fill-opacity="0.21"/>
<path d="M354 1219L-34.0001 1219L-34 39.9138L-27.0991 38.7004C31.8923 28.3276 92.3162 29.2412 150.967 41.3927L179.43 47.2897C237.336 59.2869 297.312 56.7528 354 39.9138L354 1219Z" fill="#031F27"/>
</svg>
