<svg width="1440" height="822" viewBox="0 0 1440 822" fill="none" xmlns="http://www.w3.org/2000/svg">
<path d="M1696 0H-256V738.49L48.9302 771.909C231.394 791.906 415.532 791.25 597.848 769.953L895.995 735.125C1156.07 704.745 1419.35 716.426 1675.71 769.72L1696 773.937V0Z" fill="#3BA1A5" fill-opacity="0.21"/>
<path d="M-256 0H1696V756.906L1397.83 790.399C1210.9 811.396 1022.18 810.707 835.406 788.346L553.621 754.609C287.26 722.718 17.4635 734.971 -244.91 790.875L-256 793.238V0Z" fill="#3BA1A5" fill-opacity="0.21"/>
<path d="M0 804.953V751.555C191.827 712.603 308.104 702.765 503.5 717.527C698.896 732.289 663.744 749.535 828 765.166C992.256 780.798 985.079 774.714 1089 781.395C1223.01 779.775 1299.56 773.385 1440 751.555V806L0 804.953Z" fill="white"/>
</svg>
