<svg width="59" height="220" viewBox="0 0 59 220" fill="none" xmlns="http://www.w3.org/2000/svg">
<g clip-path="url(#clip0_318_10950)">
<g clip-path="url(#clip1_318_10950)">
<path d="M188.322 -55.0665H0.390625V158.595H188.322V-55.0665Z" fill="white"/>
<path fill-rule="evenodd" clip-rule="evenodd" d="M59.302 -1.88272H56.8301V-1.24085V0.735312V58.3438H111.773L113.037 57.4761C113.234 57.6752 113.502 57.7822 113.777 57.7822C113.869 57.7822 113.961 57.7703 114.054 57.7435C114.418 57.6425 114.698 57.3572 114.787 56.9947L114.984 56.2161H115.041L114.996 56.1715L117.835 44.9089C117.924 44.5523 117.82 44.1779 117.56 43.9194C117.301 43.6609 116.922 43.5568 116.567 43.646L105.55 46.4096L108.347 35.3105C108.436 34.9539 108.332 34.5795 108.072 34.3209C107.813 34.0624 107.437 33.9584 107.079 34.0476L96.0616 36.8112L98.8586 25.7121C98.948 25.3555 98.8437 24.9811 98.5843 24.7225C98.3248 24.464 97.9461 24.36 97.5913 24.4491L86.5736 27.2128L89.3705 16.1136C89.4599 15.757 89.3556 15.3826 89.0962 15.1241C88.8367 14.8655 88.458 14.7615 88.1032 14.8507L77.0855 17.6143L79.8824 6.51518C79.9718 6.15858 79.8675 5.78415 79.6081 5.52562C79.3486 5.26708 78.97 5.16308 78.6151 5.25223L67.5974 8.01588L70.3943 -3.08326C70.4837 -3.43986 70.3794 -3.81429 70.12 -4.07282C69.8605 -4.33136 69.4848 -4.43536 69.127 -4.34621L59.633 -1.96593M103.761 44.9654L97.4064 38.6239L105.893 36.4962L103.758 44.9654H103.761ZM94.2457 35.468L87.817 29.0492L96.4075 26.8948L94.2457 35.468ZM86.9194 17.2964L84.7487 25.9142L78.2812 19.4627L86.9224 17.2964H86.9194ZM77.4313 7.6979L75.2606 16.3157L68.7931 9.86424L77.4343 7.6979H77.4313ZM67.9433 -1.90055L65.7695 6.71724L59.302 0.265785L67.9433 -1.90055ZM113.276 54.4628L106.999 48.1986L115.384 46.0976L113.276 54.4628Z" fill="#3BA1A5"/>
<path d="M58.0644 -2.37317H0.351562V56.1655H58.0644V-2.37317Z" fill="#3BA1A5"/>
<path d="M58.0663 -2.39685H0.353516V56.1418H58.0663V-2.39685Z" fill="#3BA1A5"/>
<path fill-rule="evenodd" clip-rule="evenodd" d="M33.4415 43.8845V37.9501L33.4892 37.7897C35.0099 32.5179 38.436 30.7914 41.4208 30.7914C42.5032 30.7914 43.5349 31.0054 44.4771 31.3917C44.6203 30.8984 44.6948 30.3754 44.6948 29.8346C44.6948 26.7292 42.1662 24.2062 39.0473 24.2062C37.5773 24.2062 35.9432 25.1661 35.2843 25.5316L32.0788 27.2938L33.6383 23.9923C34.1303 22.9522 35.3618 21.0147 35.3618 19.1307C35.3618 15.6568 33.033 12.7089 29.8007 11.6005C26.5684 12.7089 24.2397 15.6568 24.2397 19.1307C24.2397 21.0147 25.4711 22.9522 25.9631 23.9923L27.5256 27.2938L24.3202 25.5316C23.6612 25.169 22.0272 24.2062 20.5571 24.2062C17.4411 24.2062 14.9096 26.7292 14.9096 29.8346C14.9096 30.3754 14.9871 30.8984 15.1273 31.3917C16.0695 31.0054 17.1012 30.7914 18.1836 30.7914C21.1684 30.7914 24.5945 32.5179 26.1152 37.7897L26.1629 37.9501V43.8845H33.4415ZM29.8007 9.12806L29.8276 9.11914H29.8335V9.13699L30.1078 9.21723C34.5299 10.5188 37.7323 14.4741 37.7323 19.1307C37.7323 20.1589 37.449 21.2108 37.0882 22.1677C37.7293 21.9745 38.4032 21.8438 39.0473 21.8438C43.4723 21.8438 47.0654 25.4246 47.0654 29.8375C47.0654 31.1926 46.7254 32.4704 46.1261 33.5907L45.5238 34.717L44.4443 34.0305C43.5707 33.4748 42.533 33.1539 41.4208 33.1539C39.265 33.1539 36.9451 34.5446 35.815 38.2859V45.2158L35.4691 46.247H24.1353L23.7894 45.2158V38.2859C22.6593 34.5446 20.3365 33.1539 18.1836 33.1539C17.0714 33.1539 16.0337 33.4748 15.1601 34.0305L14.0807 34.717L13.4783 33.5907C12.879 32.4704 12.5391 31.1926 12.5391 29.8375C12.5391 25.4246 16.1321 21.8438 20.5571 21.8438C21.2012 21.8438 21.8751 21.9745 22.5162 22.1677C22.1524 21.2108 21.8721 20.1618 21.8721 19.1307C21.8721 14.4741 25.0746 10.5188 29.4966 9.21723L29.7739 9.13699V9.12212H29.7798L29.8067 9.12806H29.8007Z" fill="white"/>
</g>
<g clip-path="url(#clip2_318_10950)">
<path d="M127.99 0.503418H-59.9414V214.165H127.99V0.503418Z" fill="white"/>
<path fill-rule="evenodd" clip-rule="evenodd" d="M43.2518 66.8071C42.0561 66.8071 41.084 67.7759 41.084 68.9675C41.084 70.1592 42.0561 71.125 43.2518 71.125C44.4475 71.125 45.4195 70.1562 45.4195 68.9675C45.4195 67.7789 44.4475 66.8071 43.2518 66.8071Z" fill="#3BA1A5"/>
<path fill-rule="evenodd" clip-rule="evenodd" d="M43.2462 57.3036C34.4231 57.3036 27.2578 64.4415 27.2578 73.2376C27.2578 82.0337 34.4201 89.1716 43.2462 89.1716C52.0724 89.1716 59.2347 82.0337 59.2347 73.2376C59.2347 64.4415 52.0694 57.3036 43.2462 57.3036ZM48.6314 71.2347L43.2522 83.1392L37.9028 71.3031C37.5868 70.5869 37.4108 69.7994 37.4108 68.9703C37.4108 65.7609 40.0259 63.1518 43.2492 63.1518C46.4725 63.1518 49.0876 65.758 49.0876 68.9703C49.0876 69.7756 48.9236 70.5423 48.6284 71.2377H48.6343L48.6314 71.2347Z" fill="#3BA1A5"/>
<path fill-rule="evenodd" clip-rule="evenodd" d="M-17.1101 53.6872H-19.582V54.3291V56.3053V113.914H35.3607L36.6249 113.046C36.8217 113.245 37.0901 113.352 37.3644 113.352C37.4569 113.352 37.5493 113.34 37.6417 113.313C38.0055 113.212 38.2858 112.927 38.3753 112.565L38.572 111.786H38.6287L38.584 111.741L41.4226 100.479C41.5121 100.122 41.4077 99.7479 41.1483 99.4893C40.8889 99.2308 40.5102 99.1268 40.1554 99.2159L29.1376 101.98L31.9346 90.8805C32.024 90.5239 31.9197 90.1494 31.6602 89.8909C31.4008 89.6324 31.0251 89.5284 30.6673 89.6175L19.6495 92.3811L22.4465 81.282C22.5359 80.9254 22.4316 80.551 22.1721 80.2925C21.9127 80.0339 21.534 79.9299 21.1792 80.0191L10.1614 82.7827L12.9584 71.6836C13.0478 71.327 12.9435 70.9525 12.684 70.694C12.4246 70.4355 12.0459 70.3315 11.6911 70.4206L0.673349 73.1843L3.47028 62.0851C3.55973 61.7285 3.45537 61.3541 3.19595 61.0956C2.93653 60.837 2.55785 60.733 2.20301 60.8222L-8.81475 63.5858L-6.01782 52.4867C-5.92836 52.1301 -6.03273 51.7557 -6.29215 51.4971C-6.55156 51.2386 -6.92727 51.1346 -7.28508 51.2237L-16.7791 53.604M27.3485 100.535L20.9943 94.1939L29.4805 92.0662L27.3456 100.535H27.3485ZM17.8336 91.0379L11.4049 84.6192L19.9954 82.4647L17.8336 91.0379ZM10.5073 72.8663L8.33657 81.4841L1.86905 75.0326L10.5103 72.8663H10.5073ZM1.01924 63.2678L-1.15151 71.8856L-7.61904 65.4342L1.02221 63.2678H1.01924ZM-8.46886 53.6694L-10.6426 62.2872L-17.1101 55.8357L-8.46886 53.6694ZM36.8635 110.033L30.5868 103.769L38.9716 101.668L36.8635 110.033Z" fill="#3BA1A5"/>
</g>
<g clip-path="url(#clip3_318_10950)">
<path d="M193.236 109.858H0.398438V326.692H193.236V109.858Z" fill="white"/>
<path fill-rule="evenodd" clip-rule="evenodd" d="M60.8431 163.831H58.3066V164.483V166.488V224.952H114.684L115.981 224.071C116.183 224.273 116.458 224.382 116.74 224.382C116.835 224.382 116.93 224.37 117.024 224.343C117.398 224.24 117.685 223.951 117.777 223.583L117.979 222.793H118.037L117.991 222.747L120.904 211.318C120.996 210.956 120.889 210.576 120.623 210.313C120.356 210.051 119.968 209.946 119.604 210.036L108.298 212.841L111.168 201.577C111.26 201.215 111.153 200.835 110.887 200.573C110.621 200.31 110.235 200.205 109.868 200.295L98.5625 203.1L101.432 191.836C101.524 191.474 101.417 191.094 101.151 190.832C100.885 190.569 100.496 190.464 100.132 190.554L88.8267 193.359L91.6966 182.095C91.7884 181.733 91.6814 181.353 91.4152 181.091C91.149 180.828 90.7604 180.723 90.3963 180.813L79.0909 183.618L81.9608 172.354C82.0526 171.992 81.9455 171.612 81.6793 171.35C81.4131 171.087 81.0246 170.982 80.6605 171.072L69.355 173.877L72.225 162.613C72.3168 162.251 72.2097 161.871 71.9435 161.609C71.6773 161.346 71.2918 161.241 70.9247 161.331L61.1827 163.747M106.463 211.375L99.9424 204.939L108.65 202.78L106.459 211.375H106.463ZM96.6992 201.737L90.1026 195.223L98.9174 193.036L96.6992 201.737ZM89.1816 183.295L86.9542 192.041L80.3178 185.494L89.1847 183.295H89.1816ZM79.4458 173.554L77.2184 182.3L70.582 175.753L79.4488 173.554H79.4458ZM69.71 163.813L67.4795 172.559L60.8431 166.012L69.71 163.813ZM116.226 221.013L109.785 214.656L118.389 212.524L116.226 221.013Z" fill="#3BA1A5"/>
<path d="M59.577 163.334H0.357422V222.742H59.577V163.334Z" fill="#3BA1A5"/>
<mask id="mask0_318_10950" style="mask-type:luminance" maskUnits="userSpaceOnUse" x="0" y="110" width="60" height="54">
<path d="M59.6249 110H0.267578V163.982H59.6249V110Z" fill="white"/>
</mask>
<g mask="url(#mask0_318_10950)">
<path d="M12.5642 156.932C9.58106 156.932 6.77841 155.786 4.67031 153.708L3.00586 152.067L6.33782 148.783L8.00228 150.423C9.22002 151.624 10.8416 152.284 12.5642 152.284C14.2868 152.284 15.9084 151.624 17.1262 150.423C19.6412 147.945 19.6412 143.909 17.1262 141.43L15.4617 139.79L18.7937 136.506L20.4612 138.146C24.812 142.435 24.812 149.416 20.4612 153.705C18.3531 155.783 15.5504 156.929 12.5673 156.929" fill="#3BA1A5"/>
<path d="M-7.53734 174.206C-10.5205 174.206 -13.3231 173.06 -15.4313 170.982L-17.0957 169.341L-13.7637 166.06L-12.0993 167.701C-10.8815 168.901 -9.25993 169.561 -7.53734 169.561C-5.81475 169.561 -4.19314 168.901 -2.97539 167.701C-1.75765 166.5 -1.08759 164.905 -1.08759 163.204C-1.08759 161.503 -1.75765 159.908 -2.97539 158.708L-4.63985 157.067L-1.30788 153.783L0.356571 155.424C2.46467 157.501 3.62428 160.264 3.62428 163.204C3.62428 166.145 2.46467 168.907 0.356571 170.985C-1.75153 173.063 -4.55418 174.209 -7.53734 174.209" fill="#3BA1A5"/>
<path d="M2.55641 147.067C-0.423696 147.067 -3.2294 145.924 -5.3375 143.843L-7.00195 142.203L-3.66999 138.918L-2.00553 140.559C-0.787791 141.759 0.833822 142.42 2.55641 142.42C4.27899 142.42 5.90061 141.759 7.11835 140.559C8.3361 139.359 9.00616 137.763 9.00616 136.062C9.00616 134.362 8.3361 132.766 7.11835 131.569L5.45084 129.928L8.77975 126.644L10.4473 128.285C12.5554 130.36 13.715 133.125 13.715 136.065C13.715 139.006 12.5554 141.768 10.4473 143.846C8.33916 145.924 5.53651 147.07 2.55335 147.07" fill="#3BA1A5"/>
<path d="M-7.45336 137.199C-10.4365 137.199 -13.2392 136.053 -15.3473 133.975L-17.0117 132.335L-13.6798 129.051L-12.0153 130.694C-10.7976 131.894 -9.17594 132.558 -7.45336 132.558C-5.73077 132.558 -4.10916 131.897 -2.89141 130.694C-1.67367 129.494 -1.0036 127.896 -1.0036 126.198C-1.0036 124.5 -1.67367 122.901 -2.89141 121.704L-4.55586 120.064L-1.22696 116.779L0.440556 118.42C2.54866 120.495 3.70826 123.257 3.70826 126.198C3.70826 129.138 2.54866 131.9 0.440556 133.978C-1.66755 136.056 -4.47019 137.202 -7.45336 137.202" fill="#3BA1A5"/>
<path d="M30.3259 139.238C27.4682 139.238 24.6105 138.164 22.432 136.02L20.7676 134.38L24.0995 131.095L25.764 132.739C28.279 135.218 32.3728 135.218 34.8879 132.739C36.1056 131.539 36.7757 129.94 36.7757 128.243C36.7757 126.545 36.1056 124.946 34.8879 123.746L33.2234 122.105L36.5554 118.821L38.2199 120.462C40.328 122.54 41.4876 125.302 41.4876 128.243C41.4876 131.183 40.328 133.945 38.2199 136.023C36.0444 138.167 33.1837 139.241 30.3259 139.241" fill="#3BA1A5"/>
<path d="M47.8524 121.97C44.8723 121.97 42.0666 120.824 39.9585 118.746L38.291 117.105L41.623 113.821L43.2874 115.462C44.5052 116.665 46.1268 117.325 47.8494 117.325C49.572 117.325 51.1936 116.665 52.4113 115.462C53.6291 114.261 54.2991 112.666 54.2991 110.965C54.2991 109.264 53.6291 107.669 52.4113 106.469L50.7469 104.828L54.0788 101.544L55.7433 103.185C57.8514 105.262 59.011 108.025 59.011 110.965C59.011 113.906 57.8514 116.668 55.7433 118.746C53.6352 120.824 50.8325 121.97 47.8494 121.97" fill="#3BA1A5"/>
<path d="M20.3142 129.373C17.4565 129.373 14.5988 128.3 12.4203 126.156L10.7559 124.515L14.0878 121.231L15.7523 122.871C18.2673 125.35 22.3611 125.35 24.8762 122.871C27.3912 120.393 27.3912 116.357 24.8762 113.878L23.2117 112.238L26.5437 108.954L28.2081 110.594C32.559 114.883 32.559 121.864 28.2081 126.153C26.0327 128.297 23.1719 129.37 20.3142 129.37" fill="#3BA1A5"/>
<path d="M37.8416 112.099C34.9838 112.099 32.1231 111.025 29.9477 108.881L28.2832 107.241L31.6152 103.957L33.2796 105.6C35.7947 108.079 39.8885 108.079 42.4035 105.6C44.9185 103.121 44.9185 99.0861 42.4035 96.6071L40.7391 94.9665L44.071 91.6824L45.7355 93.323C50.0863 97.6114 50.0863 104.593 45.7355 108.881C43.5601 111.025 40.6993 112.099 37.8416 112.099Z" fill="#3BA1A5"/>
<path d="M10.3064 119.512C7.32324 119.512 4.5206 118.369 2.4125 116.288L0.748047 114.648L4.08001 111.363L5.74446 113.004C6.9622 114.204 8.58382 114.865 10.3064 114.865C12.029 114.865 13.6506 114.204 14.8684 113.004C16.0861 111.804 16.7562 110.208 16.7562 108.507C16.7562 106.807 16.0861 105.211 14.8684 104.011L13.2039 102.37L16.5359 99.0862L18.2003 100.727C20.3084 102.805 21.468 105.567 21.468 108.507C21.468 111.448 20.3084 114.21 18.2003 116.288C16.0922 118.366 13.2896 119.512 10.3064 119.512Z" fill="#3BA1A5"/>
<path d="M32.3865 176.468C29.4033 176.468 26.6007 175.322 24.4926 173.244L22.8281 171.603L26.1601 168.319L27.8245 169.96C29.0423 171.16 30.6639 171.82 32.3865 171.82C34.1091 171.82 35.7307 171.16 36.9484 169.96C38.1662 168.759 38.8362 167.161 38.8362 165.463C38.8362 163.765 38.1662 162.167 36.9484 160.97L35.284 159.329L38.6129 156.045L40.2804 157.685C42.3885 159.76 43.5481 162.523 43.5481 165.463C43.5481 168.403 42.3854 171.166 40.2804 173.244C38.1723 175.322 35.3697 176.468 32.3865 176.468Z" fill="#3BA1A5"/>
<path d="M22.3767 166.603C19.3936 166.603 16.5909 165.457 14.4828 163.379L12.8184 161.739L16.1503 158.457L17.8148 160.098C19.0325 161.298 20.6541 161.959 22.3767 161.959C24.0993 161.959 25.7209 161.298 26.9387 160.095C28.1564 158.895 28.8265 157.299 28.8265 155.599C28.8265 153.898 28.1564 152.302 26.9387 151.105L25.2712 149.464L28.6001 146.18L30.2676 147.821C32.3726 149.896 33.5353 152.661 33.5353 155.602C33.5353 158.542 32.3757 161.304 30.2676 163.382C28.1595 165.46 25.3568 166.606 22.3737 166.606" fill="#3BA1A5"/>
<path d="M4.66578 183.877C1.68262 183.877 -1.12002 182.731 -3.22813 180.654L-4.89258 179.013L-1.56061 175.729L0.103841 177.369C1.32158 178.57 2.9432 179.23 4.66578 179.23C6.38837 179.23 8.00999 178.57 9.22773 177.369C10.4455 176.169 11.1155 174.574 11.1155 172.873C11.1155 171.172 10.4455 169.577 9.22773 168.376L7.56328 166.736L10.8952 163.452L12.5597 165.092C14.6678 167.17 15.8274 169.933 15.8274 172.873C15.8274 175.813 14.6678 178.576 12.5597 180.654C10.4516 182.731 7.64894 183.877 4.66578 183.877Z" fill="#3BA1A5"/>
<path d="M60.156 168.642C57.2983 168.642 54.4375 167.568 52.2621 165.424L50.5977 163.783L53.9296 160.499L55.5941 162.14C58.1091 164.619 62.2029 164.619 64.718 162.14C65.9357 160.94 66.6058 159.344 66.6058 157.643C66.6058 155.942 65.9357 154.347 64.718 153.147L63.0535 151.503L66.3855 148.222L68.0499 149.863C70.155 151.94 71.3176 154.703 71.3176 157.643C71.3176 160.584 70.158 163.346 68.0499 165.424C65.8745 167.568 63.0137 168.642 60.156 168.642Z" fill="#3BA1A5"/>
<path d="M50.1443 158.774C47.2866 158.774 44.4258 157.704 42.2504 155.556L40.5859 153.916L43.9179 150.632L45.5824 152.275C48.0974 154.754 52.1912 154.754 54.7062 152.275C57.2213 149.796 57.2213 145.761 54.7062 143.282L53.0418 141.642L56.3738 138.357L58.0413 139.998C62.3921 144.289 62.3921 151.268 58.0413 155.559C55.8659 157.704 53.0051 158.777 50.1474 158.777" fill="#3BA1A5"/>
<path d="M67.6697 141.5C64.812 141.5 61.9543 140.426 59.7758 138.282L58.1113 136.642L61.4433 133.357L63.1077 134.998C65.6228 137.477 69.7166 137.477 72.2316 134.998C74.7467 132.519 74.7467 128.484 72.2316 126.005L70.5672 124.361L73.8961 121.077L75.5636 122.718C79.9144 127.006 79.9144 133.988 75.5636 138.276C73.3882 140.42 70.5274 141.494 67.6697 141.494" fill="#3BA1A5"/>
<path d="M40.1365 148.916C37.1564 148.916 34.3507 147.773 32.2426 145.692L30.5781 144.051L33.9101 140.767L35.5745 142.408C36.7923 143.608 38.4139 144.268 40.1365 144.268C41.8591 144.268 43.4807 143.608 44.6984 142.408C45.9162 141.207 46.5862 139.612 46.5862 137.911C46.5862 136.21 45.9162 134.615 44.6984 133.414L43.034 131.774L46.3629 128.49L48.0304 130.13C50.1354 132.208 51.2981 134.971 51.2981 137.911C51.2981 140.851 50.1354 143.614 48.0304 145.692C45.9223 147.77 43.1196 148.916 40.1365 148.916Z" fill="#3BA1A5"/>
<path d="M57.6619 131.641C54.6787 131.641 51.8761 130.495 49.768 128.418L48.1035 126.777L51.4355 123.493L53.0999 125.133C54.3177 126.334 55.9393 126.994 57.6619 126.994C59.3845 126.994 61.0061 126.334 62.2238 125.133C63.4416 123.933 64.1116 122.335 64.1116 120.637C64.1116 118.939 63.4416 117.341 62.2238 116.14L60.5594 114.5L63.8913 111.216L65.5589 112.856C67.6639 114.934 68.8266 117.696 68.8266 120.637C68.8266 123.577 67.667 126.34 65.5589 128.418C63.4508 130.495 60.6481 131.641 57.6649 131.641" fill="#3BA1A5"/>
</g>
</g>
<g clip-path="url(#clip4_318_10950)">
<path d="M119.909 64.0498H-59.1543V266.183H119.909V64.0498Z" fill="white"/>
<path fill-rule="evenodd" clip-rule="evenodd" d="M70.8375 139.039C62.4307 139.039 55.6035 145.792 55.6035 154.113C55.6035 162.435 62.4279 169.187 70.8375 169.187C79.2472 169.187 86.0716 162.435 86.0716 154.113C86.0716 145.792 79.2472 139.039 70.8375 139.039ZM76.051 153.402L70.9256 164.664L65.8258 153.458C65.5275 152.783 65.3599 152.038 65.3599 151.257C65.3599 148.218 67.8515 145.752 70.9228 145.752C73.994 145.752 76.4857 148.218 76.4857 151.257C76.4857 152.016 76.3294 152.741 76.0453 153.402H76.051Z" fill="#3BA1A5"/>
<path d="M77.5093 165.285H-5.70312V221.14H77.5093V165.285Z" fill="#3BA1A5"/>
<path d="M4.18335 231.562L3.37932 223.696L2.57812 231.562" stroke="#3BA1A5" stroke-width="3.72319" stroke-miterlimit="10"/>
<path d="M26.9286 231.562L26.1274 223.696L25.3262 231.562" stroke="#3BA1A5" stroke-width="3.72319" stroke-miterlimit="10"/>
<mask id="mask1_318_10950" style="mask-type:luminance" maskUnits="userSpaceOnUse" x="35" y="214" width="85" height="53">
<path d="M119.914 214.556H35.9824V266.857H119.914V214.556Z" fill="white"/>
</mask>
<g mask="url(#mask1_318_10950)">
<path d="M40.8069 231.587C37.9459 231.587 35.2582 230.482 33.2354 228.48L31.6387 226.897L34.8349 223.732L36.4316 225.315C37.5993 226.473 39.1534 227.111 40.8069 227.111C42.4605 227.111 44.0117 226.473 45.1822 225.315C47.5943 222.925 47.5943 219.034 45.1822 216.645L43.5855 215.062L46.7789 211.896L48.3756 213.479C52.5492 217.614 52.5492 224.345 48.3756 228.48C46.3528 230.485 43.6651 231.587 40.8069 231.587Z" fill="#3BA1A5"/>
<path d="M31.2054 222.073C28.3444 222.073 25.6567 220.971 23.6338 218.967L22.0371 217.384L25.2334 214.218L26.8301 215.801C27.9978 216.959 29.5518 217.598 31.2054 217.598C32.8589 217.598 34.413 216.959 35.5807 215.801C36.7484 214.646 37.3905 213.105 37.3905 211.466C37.3905 209.827 36.7484 208.289 35.5807 207.134L33.984 205.551L37.1774 202.386L38.7769 203.968C40.797 205.97 41.9107 208.632 41.9107 211.469C41.9107 214.306 40.797 216.968 38.7769 218.97C36.7541 220.974 34.0664 222.076 31.2054 222.076" fill="#3BA1A5"/>
<path d="M67.2601 223.867C64.3991 223.867 61.7114 222.765 59.6885 220.76L58.0918 219.177L61.288 216.012L62.8847 217.595C64.0524 218.753 65.6094 219.391 67.2601 219.391C68.9107 219.391 70.4677 218.753 71.6354 217.595C72.8031 216.439 73.448 214.899 73.448 213.26C73.448 211.621 72.8059 210.083 71.6354 208.925L70.0387 207.342L73.2321 204.176L74.8288 205.759C76.8488 207.761 77.9625 210.426 77.9625 213.26C77.9625 216.093 76.8488 218.759 74.8288 220.76C72.8059 222.765 70.1182 223.867 67.2572 223.867" fill="#3BA1A5"/>
</g>
<path d="M38.8711 195.301C40.4455 193.667 37.5561 191.334 39.1275 189.702C40.7019 188.068 43.0158 190.974 44.5872 189.34C46.1616 187.706 43.4929 185.153 45.0673 183.521C46.6417 181.887 49.3104 184.44 50.8818 182.805" stroke="white" stroke-width="1.70984" stroke-miterlimit="10" stroke-linecap="square"/>
<path d="M32.6635 202.193C34.5182 202.626 36.9573 200.713 36.8232 198.439C36.686 196.169 35.21 194.107 32.753 193.382C30.296 192.657 26.2676 192.847 26.2676 192.847" stroke="white" stroke-width="1.70984" stroke-miterlimit="10" stroke-linecap="square"/>
<path d="M25.9336 200.359L31.9956 198.436" stroke="white" stroke-width="1.70984" stroke-miterlimit="10" stroke-linecap="square"/>
<path d="M19.7507 209.488L21.2982 201.355V201.224L13.2772 198.338L12.5735 198.05L15.111 184.716L7.97852 185.483V183.165L11.348 181.733L7.97852 180.229V176.684L19.5867 180.473L20.1502 183.219L18.71 190.743L20.845 191.649L22.482 183.034L36.091 178.137" stroke="white" stroke-width="1.70984" stroke-miterlimit="10" stroke-linecap="square"/>
<path d="M23.8633 209.226L25.4705 200.787" stroke="white" stroke-width="1.70984" stroke-miterlimit="10" stroke-linecap="square"/>
<path d="M28.8145 191.498C28.8145 190.297 29.7895 189.325 30.9941 189.325C31.7157 189.325 32.3568 189.679 32.7534 190.217C32.7713 190.202 32.7862 190.187 32.8011 190.169C32.3181 189.771 32.0109 189.171 32.0109 188.496C32.0109 187.296 32.986 186.324 34.1906 186.324C34.629 186.324 35.0345 186.455 35.3774 186.675C35.3863 186.654 35.3953 186.633 35.4042 186.609C34.4501 186.377 33.7434 185.525 33.7434 184.502C33.7434 183.305 34.7184 182.333 35.9201 182.333C36.1258 182.333 36.3256 182.363 36.5135 182.416C36.5135 182.407 36.5165 182.398 36.5194 182.387C35.3863 182.309 34.4948 180.767 34.4948 179.617" stroke="white" stroke-width="1.70984" stroke-miterlimit="10" stroke-linecap="square"/>
<path d="M17.7578 209.488H25.7878" stroke="white" stroke-width="1.70984" stroke-miterlimit="10" stroke-linecap="square"/>
</g>
</g>
<defs>
<clipPath id="clip0_318_10950">
<rect width="59" height="220" fill="white"/>
</clipPath>
<clipPath id="clip1_318_10950">
<rect width="58.7454" height="55.57" fill="white" transform="translate(0.263672 -1.13989)"/>
</clipPath>
<clipPath id="clip2_318_10950">
<rect width="58.7454" height="55.57" fill="white" transform="translate(0.263672 54.4301)"/>
</clipPath>
<clipPath id="clip3_318_10950">
<rect width="58.7454" height="55.57" fill="white" transform="translate(0.263672 110)"/>
</clipPath>
<clipPath id="clip4_318_10950">
<rect width="59.2746" height="55.8549" fill="white" transform="translate(0 165.285)"/>
</clipPath>
</defs>
</svg>
