<svg width="74" height="79" viewBox="0 0 74 79" fill="none" xmlns="http://www.w3.org/2000/svg">
<g filter="url(#filter0_dd_376_20326)">
<rect x="27.4531" y="13" width="32.6599" height="32.6599" rx="5.7954" transform="rotate(15 27.4531 13)" fill="url(#paint0_linear_376_20326)"/>
<rect x="27.658" y="13.3549" width="32.0803" height="32.0803" rx="5.50563" transform="rotate(15 27.658 13.3549)" stroke="#3BA1A5" stroke-width="0.57954"/>
</g>
<path fill-rule="evenodd" clip-rule="evenodd" d="M44.1683 35.5289C44.6833 35.1516 44.7573 34.6239 44.6957 34.0504C44.6695 33.804 44.6177 33.5492 44.6004 33.3062C44.5849 33.0809 44.5905 32.8613 44.7951 32.711C44.9928 32.5664 45.188 32.6294 45.3835 32.7128C45.6003 32.8066 45.817 32.9389 46.0348 33.0435C46.5501 33.2926 47.0655 33.3924 47.5882 33.0097C48.09 32.6417 48.1901 32.108 48.1629 31.5251C48.149 31.2133 48.0962 30.8871 48.1182 30.5903C48.1319 30.4019 48.1764 30.2246 48.3466 30.1002C48.5167 29.9758 48.699 29.9855 48.883 30.0302C49.1725 30.0992 49.4675 30.2471 49.7609 30.3543C50.3097 30.5553 50.8486 30.6197 51.3504 30.2517L51.6921 30.0002L51.1901 29.3169L50.8476 29.5673C50.6775 29.6917 50.4952 29.682 50.3122 29.6374C50.0217 29.5683 49.7277 29.4205 49.4342 29.3133C48.8855 29.1123 48.3475 29.0481 47.8457 29.4161C47.3439 29.7842 47.2439 30.3169 47.271 30.9008C47.2848 31.2125 47.3378 31.5378 47.3165 31.8357C47.3028 32.0241 47.2584 32.2014 47.0882 32.3258C46.8905 32.4704 46.6951 32.4083 46.5007 32.3242C46.283 32.2303 46.0672 32.0981 45.8494 31.9935C45.3349 31.7455 44.8187 31.6446 44.2961 32.0273C43.7811 32.4046 43.7071 32.9322 43.7687 33.5058C43.7949 33.7522 43.8467 34.007 43.864 34.2499C43.8795 34.4752 43.8739 34.6949 43.6693 34.8451L43.3278 35.0957L43.8287 35.7798L44.1712 35.5294L44.1683 35.5289ZM32.723 40.2147L31.6422 40.0256L31.496 40.8616L32.8825 41.104L33.2423 41.2392L33.2686 41.1716L36.3895 41.7174L36.5357 40.8814L35.626 40.7224L37.0195 37.024L40.6405 36.5337L40.5264 35.6927L36.4524 36.2445L36.4536 36.2543L36.4093 36.2379L34.7753 40.5726L33.573 40.3624L34.9104 36.8141L34.9799 36.4167L30.9317 34.0995L30.9012 34.0807L33.4452 27.3304L29.6739 27.0823L29.7498 26.6485L32.2513 26.0635L30.1057 24.6129L30.272 23.662L35.0685 26.219L35.1012 27.3319L33.6133 31.2614L35.3406 32.3816L37.0324 27.8922L42.6586 26.9056C42.6268 27.2527 42.6988 27.6565 42.8563 28.0011C42.3552 28.1832 41.9614 28.6222 41.863 29.1851C41.8259 29.3973 41.8334 29.6077 41.8808 29.8049C41.262 29.9164 40.7493 30.402 40.6346 31.0574L40.6338 31.0621C40.6024 31.0547 40.5707 31.0482 40.5389 31.0426C39.7003 30.896 38.9008 31.4567 38.7541 32.2954L38.709 32.5534C38.1887 32.4538 37.8184 32.4064 37.8184 32.4064L37.398 32.3531L37.2923 33.1941L37.7127 33.2474C37.7127 33.2474 39.6783 33.49 40.8068 34.0506C41.812 34.5511 42.2966 35.5542 42.1825 36.548C42.132 36.9968 41.8266 37.3597 41.4565 37.5812C41.0982 37.7951 40.6718 37.8862 40.3356 37.7427L39.9456 37.5762L39.6116 38.3561L40.0016 38.5226C40.4579 38.718 41.0169 38.6953 41.5333 38.486C42.2809 38.184 42.9267 37.4991 43.0233 36.6439C43.1758 35.309 42.5318 33.9611 41.1826 33.2905C40.711 33.0558 40.1046 32.8707 39.5372 32.732L39.5881 32.4412C39.6541 32.0635 40.0133 31.8112 40.3911 31.8773C40.6173 31.9168 40.7979 32.0631 40.8925 32.255L41.1043 32.6861L41.5342 32.4038L41.9378 32.1401L41.6251 31.7741C41.4955 31.6223 41.4313 31.4165 41.4684 31.2042C41.5345 30.8265 41.8937 30.5742 42.2714 30.6402C42.4079 30.6641 42.5288 30.7277 42.6233 30.8155L43.0028 31.169L43.2738 30.7269C43.2804 30.7165 43.2869 30.707 43.2935 30.6966L43.5482 30.2815L43.1024 30.087C42.8169 29.9619 42.6413 29.6546 42.6976 29.333C42.7635 28.9562 43.1228 28.7029 43.5005 28.769C43.5651 28.7803 43.6251 28.8004 43.682 28.8277L44.1361 29.0468L44.2738 28.5622C44.2738 28.5622 44.2725 28.5696 44.272 28.5724L44.4271 28.1322L43.9736 28.0201C43.8499 27.9889 43.7606 27.8827 43.6863 27.7618C43.536 27.5138 43.465 27.1815 43.5105 26.9216L43.5401 26.7523L44.5252 26.5797L44.3784 25.7436L36.4094 27.1405L34.9177 31.0974L34.6478 30.922L35.953 27.4751L35.9007 25.7025L29.6367 22.3638L29.1741 25.0089L30.1666 25.6807L29.0093 25.9514L28.6741 27.8682L32.2464 28.1026L29.8611 34.4307L30.492 34.8282L33.9948 36.8322L32.7202 40.2142L32.723 40.2147Z" fill="white"/>
<defs>
<filter id="filter0_dd_376_20326" x="0.0168724" y="0.9716" width="77.9663" height="77.9658" filterUnits="userSpaceOnUse" color-interpolation-filters="sRGB">
<feFlood flood-opacity="0" result="BackgroundImageFix"/>
<feColorMatrix in="SourceAlpha" type="matrix" values="0 0 0 0 0 0 0 0 0 0 0 0 0 0 0 0 0 0 127 0" result="hardAlpha"/>
<feOffset dy="2.31816"/>
<feGaussianBlur stdDeviation="5.50563"/>
<feColorMatrix type="matrix" values="0 0 0 0 0 0 0 0 0 0 0 0 0 0 0 0 0 0 0.03 0"/>
<feBlend mode="normal" in2="BackgroundImageFix" result="effect1_dropShadow_376_20326"/>
<feColorMatrix in="SourceAlpha" type="matrix" values="0 0 0 0 0 0 0 0 0 0 0 0 0 0 0 0 0 0 127 0" result="hardAlpha"/>
<feOffset dy="6.95448"/>
<feGaussianBlur stdDeviation="10.142"/>
<feColorMatrix type="matrix" values="0 0 0 0 0 0 0 0 0 0 0 0 0 0 0 0 0 0 0.03 0"/>
<feBlend mode="normal" in2="effect1_dropShadow_376_20326" result="effect2_dropShadow_376_20326"/>
<feBlend mode="normal" in="SourceGraphic" in2="effect2_dropShadow_376_20326" result="shape"/>
</filter>
<linearGradient id="paint0_linear_376_20326" x1="43.7831" y1="13" x2="43.7831" y2="45.6599" gradientUnits="userSpaceOnUse">
<stop stop-color="#3D9A9D"/>
<stop offset="1" stop-color="#2D7890"/>
</linearGradient>
</defs>
</svg>
