<svg width="151" height="333" viewBox="0 0 151 333" fill="none" xmlns="http://www.w3.org/2000/svg">
<path opacity="0.05" d="M145.942 323.134H136.491L144.157 276.413C144.633 273.528 143.928 270.643 142.171 268.276C140.414 265.915 137.818 264.36 134.874 263.908L126.599 262.615L131.954 229.97C132.854 224.51 129.413 219.368 124.131 217.781L127.724 195.901C128.104 193.599 127.539 191.287 126.135 189.394C125.027 187.9 123.488 186.831 121.737 186.259L128.154 147.145C129.223 145.165 128.82 142.668 127.013 141.135C124.266 138.801 123.449 137.154 123.382 136.756C123.382 136.75 123.382 136.745 123.382 136.739L127.393 112.296C128.417 111.729 129.335 111.085 130.068 110.311C131.965 108.31 131.859 105.174 129.805 103.325C128.742 102.365 127.382 101.956 126.045 102.038L125.894 4.91919C125.894 4.85375 125.877 4.79921 125.877 4.73377C125.872 4.5538 125.849 4.37928 125.821 4.19931C125.799 4.05206 125.776 3.89936 125.737 3.75757C125.698 3.59941 125.642 3.44671 125.586 3.29401C125.53 3.1413 125.48 2.99405 125.407 2.85226C125.34 2.71046 125.256 2.57412 125.178 2.43778C125.094 2.30144 125.015 2.17055 124.92 2.04512C124.82 1.91423 124.713 1.7888 124.601 1.66882C124.501 1.55429 124.4 1.44522 124.288 1.3416C124.165 1.22707 124.031 1.12891 123.896 1.02529C123.768 0.932575 123.645 0.839862 123.51 0.758058C123.376 0.676253 123.231 0.605355 123.085 0.534458C122.928 0.458107 122.772 0.387209 122.604 0.327219C122.542 0.305405 122.486 0.267229 122.419 0.245414C122.33 0.218146 122.24 0.212692 122.151 0.190878C121.972 0.141795 121.793 0.103619 121.608 0.0763511C121.457 0.0545365 121.311 0.0436292 121.16 0.0327219C121.048 0.0272683 120.942 0 120.83 0H120.825C120.741 0 120.668 0.0218146 120.584 0.0218146C120.455 0.0272683 120.327 0.0436292 120.204 0.0599902C119.985 0.0872584 119.773 0.11998 119.571 0.174517C119.482 0.196331 119.392 0.229053 119.303 0.256322C119.079 0.327219 118.861 0.40357 118.654 0.501736C118.57 0.539912 118.491 0.588994 118.413 0.632624C118.217 0.741697 118.021 0.85077 117.842 0.981657C117.747 1.0471 117.663 1.12345 117.579 1.19435C117.423 1.31978 117.277 1.45067 117.137 1.59792C117.042 1.69609 116.964 1.79971 116.88 1.90332C116.762 2.04512 116.651 2.19237 116.55 2.35052C116.477 2.46505 116.416 2.59048 116.348 2.71592C116.259 2.88498 116.181 3.05405 116.113 3.23402C116.091 3.28855 116.057 3.33764 116.041 3.39217L84.8134 95.6298C83.5712 95.1499 82.1388 95.139 80.8295 95.728C78.2893 96.8678 77.1814 99.7964 78.3508 102.272C78.7872 103.194 79.4698 104.072 80.2644 104.928L76.2861 129.197C76.2414 129.268 76.1854 129.328 76.1463 129.404C75.956 129.759 74.6579 131.073 71.2951 132.464C69.0067 133.407 67.8149 135.801 68.3408 138.086L61.9622 176.96C60.1102 176.976 58.3141 177.522 56.7866 178.596C54.845 179.965 53.5693 181.988 53.1944 184.295L49.6078 206.175C47.1739 206.132 44.8015 206.802 42.7983 208.215C40.3588 209.938 38.753 212.48 38.2774 215.381L32.9227 248.027L24.6416 246.734C21.6873 246.276 18.7274 246.963 16.3047 248.676C13.8819 250.388 12.2872 252.913 11.8172 255.793L0.0615482 327.29H0.078334C0.039167 327.546 0 327.803 0 328.07C0 330.791 2.26609 333 5.05814 333H145.942C148.739 333 151 330.791 151 328.07C151 325.349 148.734 323.14 145.942 323.14V323.134ZM115.822 35.476L115.934 105.086C112.924 105.288 109.075 105.201 104.498 104.487C100.424 103.854 96.597 102.823 93.4469 101.58L115.822 35.476ZM78.2445 140.104C80.4378 138.926 82.6312 137.361 84.1531 135.376C85.1043 134.634 85.7981 133.582 86.0051 132.317L89.5526 110.682C93.4469 112.236 97.9847 113.463 102.892 114.232C106.193 114.745 109.768 115.067 113.249 115.067C114.418 115.067 115.571 115.018 116.706 114.941L113.159 136.559C112.974 137.667 113.204 138.741 113.713 139.663C114.491 142.182 116.209 144.495 118.033 146.387L111.777 184.503L71.9778 178.296L78.2445 140.11V140.104ZM62.9917 186.951L117.551 195.453L114.166 216.068L105.163 214.667C105.259 214.449 105.376 214.241 105.415 214.001C105.93 210.865 106.73 206.012 107.239 202.876C107.374 202.069 107.167 201.245 106.68 200.585C106.187 199.925 105.443 199.478 104.621 199.347C103.199 199.124 101.515 198.862 100.088 198.644C99.2604 198.513 98.4155 198.715 97.7385 199.189C97.0614 199.664 96.6026 200.389 96.4683 201.196C95.9536 204.332 95.159 209.186 94.6443 212.316C94.6051 212.556 94.6555 212.791 94.6722 213.031L78.9887 210.587C79.0334 210.446 79.1229 210.32 79.1453 210.173C79.6601 207.037 80.4546 202.183 80.9694 199.047C81.1037 198.24 80.8967 197.417 80.4099 196.757C79.9175 196.097 79.1733 195.65 78.3508 195.519C76.924 195.301 75.2454 195.039 73.8186 194.815C72.9905 194.684 72.1456 194.886 71.4686 195.361C70.786 195.841 70.3327 196.566 70.1985 197.368C69.6837 200.504 68.8836 205.357 68.3744 208.493C68.352 208.64 68.3912 208.782 68.3912 208.929L59.6066 207.561L62.9917 186.946V186.951ZM48.2537 216.924C48.3153 216.548 48.5391 216.319 48.7126 216.194C48.8916 216.063 49.177 215.916 49.5686 215.992L120.998 227.128C121.625 227.226 122.056 227.799 121.955 228.41L116.595 261.061L108.879 259.856L112.225 239.437C112.437 238.145 112.113 236.825 111.324 235.767C110.535 234.709 109.349 233.994 108.023 233.787L93.5588 231.535C90.7947 231.104 88.2041 232.936 87.7621 235.625L84.4105 256.038L75.0664 254.582L78.4795 233.798C78.6921 232.506 78.3676 231.186 77.5842 230.122C76.7953 229.064 75.6091 228.355 74.283 228.143L59.8136 225.89C57.0439 225.465 54.4589 227.292 54.0169 229.98L50.6094 250.77L42.8935 249.565L48.2482 216.919L48.2537 216.924ZM101.437 242.758L98.9023 258.225L94.426 257.527L96.9607 242.06L101.431 242.758H101.437ZM67.6974 237.114L65.0956 252.951L60.6249 252.253L63.2211 236.416L67.6974 237.114ZM89.8659 296.362L85.4736 323.134H51.7788L57.0104 291.241C57.7042 287.026 60.1325 283.17 63.6856 280.667C67.2777 278.125 71.6756 277.111 76.0735 277.787C80.4602 278.469 84.3098 280.776 86.9172 284.288C89.4854 287.746 90.5653 292.147 89.8715 296.362H89.8659ZM126.246 323.134H95.7186L99.8591 297.917C100.984 291.04 99.2995 284.141 95.1087 278.502C90.9122 272.857 84.7126 269.143 77.657 268.047C70.6069 266.956 63.5233 268.592 57.7378 272.677C51.9466 276.762 48.1362 282.805 47.006 289.687L41.517 323.14H10.9947L21.7936 257.336C21.8496 256.982 22.0566 256.769 22.2245 256.654C22.3923 256.54 22.6721 256.414 23.0302 256.469L133.291 273.659C133.565 273.702 133.811 273.85 133.985 274.079C134.153 274.302 134.22 274.575 134.175 274.859L126.252 323.145L126.246 323.134Z" fill="#39919A"/>
</svg>
