<svg width="104" height="118" viewBox="0 0 104 118" fill="none" xmlns="http://www.w3.org/2000/svg">
<g filter="url(#filter0_dd_376_20323)">
<rect x="15" y="40.3276" width="44.6551" height="44.6551" rx="8.92988" transform="rotate(-30 15 40.3276)" fill="url(#paint0_linear_376_20323)"/>
<rect x="15.6099" y="40.491" width="43.7621" height="43.7621" rx="8.48339" transform="rotate(-30 15.6099 40.491)" stroke="#3BA1A5" stroke-width="0.892989"/>
</g>
<path fill-rule="evenodd" clip-rule="evenodd" d="M48.4477 38.5331L48.521 38.4922L48.2825 38.1506L48.4477 38.5331ZM35.6684 45.6549L35.7416 45.6141L35.5032 45.2724L35.6684 45.6549ZM48.1726 52.663L47.9171 52.8054L47.4981 52.0535C47.4589 51.9832 47.4844 51.8938 47.5547 51.8546C47.625 51.8155 47.7144 51.8408 47.7535 51.9111L48.1726 52.663ZM45.9824 54.2518L45.727 54.3942L45.3079 53.6423C45.2688 53.572 45.2937 53.4816 45.364 53.4424C45.4343 53.4033 45.5237 53.4286 45.5634 53.4999L45.9824 54.2518ZM50.7304 51.6058L50.4749 51.7482L50.0559 50.9963C50.0167 50.926 50.0416 50.8356 50.1119 50.7964C50.1822 50.7573 50.2716 50.7826 50.3113 50.8539L50.7304 51.6058ZM47.5848 53.9695L49.3375 52.9928L48.5016 51.4929C48.2325 51.0101 47.6215 50.8358 47.1373 51.1057C46.6531 51.3755 46.4799 51.9868 46.7489 52.4696L47.5848 53.9695ZM45.3947 55.5583L47.1473 54.5816L46.312 53.0827C46.0423 52.5989 45.4319 52.4256 44.9477 52.6955C44.4635 52.9653 44.2897 53.5756 44.5593 54.0594L45.3947 55.5583ZM50.1426 52.9123L51.8943 51.9362L51.0589 50.4373C50.7893 49.9535 50.1788 49.7802 49.6946 50.05C49.2104 50.3199 49.0367 50.9302 49.3063 51.414L50.1416 52.9129L50.1426 52.9123ZM43.0116 59.5977L43.7662 59.1772L36.5134 46.163L35.7589 46.5835L43.0116 59.5977ZM55.7751 52.4847L56.5296 52.0642L49.2769 39.05L48.5224 39.4704L55.7751 52.4847ZM49.7599 56.2518L50.0055 56.3199L50.0143 56.2682L50.0568 56.2861L50.1281 56.0415L49.7658 55.8246L49.759 56.2524L49.7599 56.2518ZM51.0915 50.2116C50.8037 49.6952 50.3053 49.3505 49.7046 49.1783C48.7281 48.8978 47.4919 49.0642 46.3522 49.6993C45.2125 50.3345 44.4208 51.2983 44.1457 52.2763C43.9761 52.8778 44.0061 53.4835 44.2939 53.9999L45.3586 55.9104L43.9993 57.8375L44.5137 58.7606L44.8207 58.5895L45.1775 59.2296L46.315 55.2957L48.9061 56.0145L48.9321 54.3286L50.3769 55.191L51.1323 52.6111L55.0748 53.7126L54.7186 53.0735L55.0256 52.9024L54.5111 51.9793L52.1552 52.1227L51.0905 50.2122L51.0915 50.2116ZM51.6479 57.8604L53.4746 61.1382L52.3349 61.7734L50.5082 58.4956L50.6815 57.4654L51.6479 57.8604ZM55.8856 53.4047L57.255 52.6415L60.067 57.6873L58.6976 58.4505L55.8856 53.4047ZM43.1211 60.5183L44.4905 59.7551L47.3025 64.8009L45.9331 65.5641L43.1211 60.5183ZM54.2685 56.0615L56.3345 59.7687L56.1187 59.889L54.0527 56.1818L53.9991 55.8318L54.2685 56.0615ZM47.8155 59.6577L49.8815 63.3649L49.6657 63.4852L47.5997 59.778L47.546 59.428L47.8155 59.6577ZM36.4932 45.1952L31.3476 37.818L34.9158 46.0743L34.594 46.2537L42.2636 60.0159L41.9557 60.1875L45.6019 66.7302L48.4685 65.1327L45.7662 60.2837L46.449 57.9206L46.7761 60.0607L49.3339 64.6504L51.0469 63.6957L48.4891 59.106L46.577 57.4772L46.9037 56.3473L49.8637 57.1691L49.6144 58.65L52.0041 62.938L54.641 61.4685L52.2513 57.1805L50.855 56.6101L51.7184 53.6628L52.8502 53.9799L53.2301 56.4639L55.7879 61.0536L57.5009 60.0989L54.9431 55.5092L53.2931 54.1039L55.6645 54.7662L58.3673 59.6161L61.2339 58.0186L57.5877 51.4758L57.2798 51.6474L49.6102 37.8852L49.2735 38.0729L44.1279 30.6956L47.6951 38.9525L47.3575 39.1406L54.0501 51.1497L52.6429 51.235L51.8401 49.7945C50.9402 48.1798 48.5337 47.7108 46.3163 48.7547L45.6365 47.5348L44.8879 47.9519L45.5677 49.1718C43.512 50.5081 42.6465 52.8019 43.5463 54.4165L44.3491 55.8571L43.5383 57.0078L36.8457 44.9988L36.4932 45.1952Z" fill="white"/>
<defs>
<filter id="filter0_dd_376_20323" x="-12.987" y="0.728355" width="116.974" height="116.975" filterUnits="userSpaceOnUse" color-interpolation-filters="sRGB">
<feFlood flood-opacity="0" result="BackgroundImageFix"/>
<feColorMatrix in="SourceAlpha" type="matrix" values="0 0 0 0 0 0 0 0 0 0 0 0 0 0 0 0 0 0 127 0" result="hardAlpha"/>
<feOffset dy="3.57195"/>
<feGaussianBlur stdDeviation="8.48339"/>
<feColorMatrix type="matrix" values="0 0 0 0 0 0 0 0 0 0 0 0 0 0 0 0 0 0 0.03 0"/>
<feBlend mode="normal" in2="BackgroundImageFix" result="effect1_dropShadow_376_20323"/>
<feColorMatrix in="SourceAlpha" type="matrix" values="0 0 0 0 0 0 0 0 0 0 0 0 0 0 0 0 0 0 127 0" result="hardAlpha"/>
<feOffset dy="10.7159"/>
<feGaussianBlur stdDeviation="15.6273"/>
<feColorMatrix type="matrix" values="0 0 0 0 0 0 0 0 0 0 0 0 0 0 0 0 0 0 0.03 0"/>
<feBlend mode="normal" in2="effect1_dropShadow_376_20323" result="effect2_dropShadow_376_20323"/>
<feBlend mode="normal" in="SourceGraphic" in2="effect2_dropShadow_376_20323" result="shape"/>
</filter>
<linearGradient id="paint0_linear_376_20323" x1="37.3275" y1="40.3276" x2="37.3275" y2="84.9827" gradientUnits="userSpaceOnUse">
<stop stop-color="#3D9A9D"/>
<stop offset="1" stop-color="#2D7890"/>
</linearGradient>
</defs>
</svg>
