<svg width="1440" height="779" viewBox="0 0 1440 779" fill="none" preserveAspectRatio="none" xmlns="http://www.w3.org/2000/svg">
<path d="M-240 26.6389L254.498 59.1558C383.922 67.6664 513.867 63.5668 642.497 46.9151L837.838 21.6272C949.017 7.23455 1061.21 2.21529 1173.23 6.62246L1682 26.6389V728.811L1198.27 704.353C1069.66 697.85 940.72 703.784 813.252 722.071L633.89 747.803C489.357 768.539 342.988 773.384 197.401 762.253L-240 728.811V26.6389Z" fill="#E2F1F2"/>
<path opacity="0.4" d="M1682 26.6389L1187.5 59.1558C1058.08 67.6664 928.133 63.5668 799.503 46.9151L604.162 21.6272C492.983 7.23455 380.791 2.21529 268.771 6.62246L-240 26.6389V728.811L243.734 704.353C372.343 697.85 501.28 703.784 628.748 722.071L808.11 747.803C952.643 768.539 1099.01 773.384 1244.6 762.253L1682 728.811V26.6389Z" fill="#E2F1F2"/>
</svg>
