<svg width="320" height="602" viewBox="0 0 320 602" fill="none" preserveAspectRatio="none" xmlns="http://www.w3.org/2000/svg">
<path d="M-248 20.5861L-84.7294 40.1284C0.798355 50.3655 87.4597 45.4948 171.302 25.7387C243.703 8.67833 318.274 2.70275 392.468 8.01595L568 20.5861V563.215L400.84 547.831C321.242 540.505 240.977 547.088 163.637 567.284C75.874 590.202 -15.5508 595.564 -105.391 583.061L-248 563.215V20.5861Z" fill="#E2F1F2"/>
<path opacity="0.4" d="M568 20.5861L404.729 40.1284C319.202 50.3655 232.54 45.4948 148.698 25.7387C76.2969 8.67833 1.72589 2.70275 -72.4683 8.01595L-248 20.5861V563.215L-80.8398 547.831C-1.24237 540.505 79.0228 547.088 156.363 567.284C244.126 590.202 335.551 595.564 425.391 583.061L568 563.215V20.5861Z" fill="#E2F1F2"/>
</svg>
